<svg width="52" height="52" viewBox="0 0 52 52" fill="none" xmlns="http://www.w3.org/2000/svg">
<rect width="52" height="52" rx="12" fill="#FBC869"/>
<path d="M39.98 22.4029C39.4414 21.84 38.8843 21.26 38.6743 20.75C38.48 20.2829 38.4686 19.5086 38.4571 18.7586C38.4357 17.3643 38.4129 15.7843 37.3143 14.6857C36.2157 13.5871 34.6357 13.5643 33.2414 13.5429C32.4914 13.5314 31.7171 13.52 31.25 13.3257C30.7414 13.1157 30.16 12.5586 29.5971 12.02C28.6114 11.0729 27.4914 10 26 10C24.5086 10 23.39 11.0729 22.4029 12.02C21.84 12.5586 21.26 13.1157 20.75 13.3257C20.2857 13.52 19.5086 13.5314 18.7586 13.5429C17.3643 13.5643 15.7843 13.5871 14.6857 14.6857C13.5871 15.7843 13.5714 17.3643 13.5429 18.7586C13.5314 19.5086 13.52 20.2829 13.3257 20.75C13.1157 21.2586 12.5586 21.84 12.02 22.4029C11.0729 23.3886 10 24.5086 10 26C10 27.4914 11.0729 28.61 12.02 29.5971C12.5586 30.16 13.1157 30.74 13.3257 31.25C13.52 31.7171 13.5314 32.4914 13.5429 33.2414C13.5643 34.6357 13.5871 36.2157 14.6857 37.3143C15.7843 38.4129 17.3643 38.4357 18.7586 38.4571C19.5086 38.4686 20.2829 38.48 20.75 38.6743C21.2586 38.8843 21.84 39.4414 22.4029 39.98C23.3886 40.9271 24.5086 42 26 42C27.4914 42 28.61 40.9271 29.5971 39.98C30.16 39.4414 30.74 38.8843 31.25 38.6743C31.7171 38.48 32.4914 38.4686 33.2414 38.4571C34.6357 38.4357 36.2157 38.4129 37.3143 37.3143C38.4129 36.2157 38.4357 34.6357 38.4571 33.2414C38.4686 32.4914 38.48 31.7171 38.6743 31.25C38.8843 30.7414 39.4414 30.16 39.98 29.5971C40.9271 28.6114 42 27.4914 42 26C42 24.5086 40.9271 23.39 39.98 22.4029ZM38.33 28.0157C37.6457 28.73 36.9371 29.4686 36.5614 30.3757C36.2014 31.2471 36.1857 32.2429 36.1714 33.2071C36.1571 34.2071 36.1414 35.2543 35.6971 35.6971C35.2529 36.14 34.2129 36.1571 33.2071 36.1714C32.2429 36.1857 31.2471 36.2014 30.3757 36.5614C29.4686 36.9371 28.73 37.6457 28.0157 38.33C27.3014 39.0143 26.5714 39.7143 26 39.7143C25.4286 39.7143 24.6929 39.0114 23.9843 38.33C23.2757 37.6486 22.5314 36.9371 21.6243 36.5614C20.7529 36.2014 19.7571 36.1857 18.7929 36.1714C17.7929 36.1571 16.7457 36.1414 16.3029 35.6971C15.86 35.2529 15.8429 34.2129 15.8286 33.2071C15.8143 32.2429 15.7986 31.2471 15.4386 30.3757C15.0629 29.4686 14.3543 28.73 13.67 28.0157C12.9857 27.3014 12.2857 26.5714 12.2857 26C12.2857 25.4286 12.9886 24.6929 13.67 23.9843C14.3514 23.2757 15.0629 22.5314 15.4386 21.6243C15.7986 20.7529 15.8143 19.7571 15.8286 18.7929C15.8429 17.7929 15.8586 16.7457 16.3029 16.3029C16.7471 15.86 17.7871 15.8429 18.7929 15.8286C19.7571 15.8143 20.7529 15.7986 21.6243 15.4386C22.5314 15.0629 23.27 14.3543 23.9843 13.67C24.6986 12.9857 25.4286 12.2857 26 12.2857C26.5714 12.2857 27.3071 12.9886 28.0157 13.67C28.7243 14.3514 29.4686 15.0629 30.3757 15.4386C31.2471 15.7986 32.2429 15.8143 33.2071 15.8286C34.2071 15.8429 35.2543 15.8586 35.6971 16.3029C36.14 16.7471 36.1571 17.7871 36.1714 18.7929C36.1857 19.7571 36.2014 20.7529 36.5614 21.6243C36.9371 22.5314 37.6457 23.27 38.33 23.9843C39.0143 24.6986 39.7143 25.4286 39.7143 26C39.7143 26.5714 39.0114 27.3071 38.33 28.0157ZM32.5229 21.7629C32.6291 21.869 32.7134 21.995 32.7709 22.1338C32.8284 22.2725 32.858 22.4212 32.858 22.5714C32.858 22.7216 32.8284 22.8703 32.7709 23.0091C32.7134 23.1478 32.6291 23.2739 32.5229 23.38L24.5229 31.38C24.4167 31.4863 24.2907 31.5706 24.1519 31.6281C24.0132 31.6856 23.8645 31.7152 23.7143 31.7152C23.5641 31.7152 23.4154 31.6856 23.2766 31.6281C23.1379 31.5706 23.0119 31.4863 22.9057 31.38L19.4771 27.9514C19.371 27.8452 19.2867 27.7192 19.2293 27.5805C19.1718 27.4417 19.1422 27.293 19.1422 27.1429C19.1422 26.9927 19.1718 26.844 19.2293 26.7053C19.2867 26.5665 19.371 26.4405 19.4771 26.3343C19.6916 26.1198 19.9824 25.9994 20.2857 25.9994C20.4359 25.9994 20.5846 26.0289 20.7233 26.0864C20.862 26.1439 20.9881 26.2281 21.0943 26.3343L23.7143 28.9557L30.9057 21.7629C31.0119 21.6566 31.1379 21.5723 31.2766 21.5148C31.4154 21.4573 31.5641 21.4277 31.7143 21.4277C31.8645 21.4277 32.0132 21.4573 32.1519 21.5148C32.2907 21.5723 32.4167 21.6566 32.5229 21.7629Z" fill="#544221"/>
</svg>
