<svg width="52" height="52" viewBox="0 0 52 52" fill="none" xmlns="http://www.w3.org/2000/svg">
<rect width="52" height="52" rx="12" fill="#F299EF"/>
<path fill-rule="evenodd" clip-rule="evenodd" d="M28.5398 18.3861C28.0409 18.7331 27.4782 18.977 26.8844 19.1034C26.2906 19.2299 25.6776 19.2364 25.0813 19.1227C24.4849 19.0089 23.9171 18.7771 23.411 18.4408C22.9049 18.1046 22.4706 17.6705 22.1335 17.1641C21.7964 16.6576 21.5632 16.0889 21.4476 15.491C21.3319 14.8932 21.3361 14.2782 21.4599 13.682C21.5837 13.0858 21.8246 12.5203 22.1686 12.0185C22.5126 11.5168 22.9527 11.0887 23.4634 10.7594C24.4715 10.0914 25.7023 9.85088 26.8867 10.0906C28.0711 10.3303 29.1127 11.0306 29.7839 12.0385C30.4551 13.0464 30.7012 14.2799 30.4685 15.4694C30.2358 16.6588 29.5432 17.7075 28.5421 18.3861H28.5398ZM27.2713 12.6672C27.0223 12.4876 26.7399 12.36 26.4409 12.2921C26.1418 12.2243 25.8322 12.2174 25.5304 12.2721C25.2286 12.3267 24.9409 12.4418 24.6844 12.6103C24.4279 12.7788 24.2078 12.9974 24.0372 13.253C23.8666 13.5086 23.749 13.7961 23.6915 14.0982C23.6339 14.4004 23.6375 14.7111 23.7021 15.0118C23.7667 15.3125 23.891 15.5971 24.0675 15.8487C24.244 16.1002 24.4692 16.3136 24.7296 16.476C25.2327 16.7826 25.8343 16.8827 26.4091 16.7553C26.9839 16.628 27.4876 16.2831 27.8152 15.7924C28.1428 15.3018 28.2691 14.7032 28.1678 14.1215C28.0665 13.5397 27.7453 13.0196 27.2713 12.6695V12.6672ZM33.2368 12.736C33.896 12.2912 34.6892 12.0909 35.4798 12.1695C36.2704 12.2482 37.0089 12.601 37.5681 13.1671C37.9666 13.5701 38.2605 14.0651 38.4239 14.6085C38.5873 15.152 38.6153 15.7274 38.5054 16.2843C38.3955 16.8411 38.1511 17.3624 37.7936 17.8024C37.4361 18.2425 36.9765 18.5878 36.455 18.808C35.8287 19.0708 35.1385 19.14 34.4727 19.0068C33.8069 18.8736 33.196 18.5441 32.718 18.0605C32.3587 17.6982 32.0837 17.2608 31.9127 16.7794C31.7416 16.2981 31.6788 15.7848 31.7286 15.2762C31.7784 14.7677 31.9396 14.2764 32.2007 13.8377C32.4619 13.3989 32.8164 13.0235 33.2391 12.7383L33.2368 12.736ZM34.3339 16.4278C34.5485 16.6422 34.8392 16.7623 35.142 16.7617C35.292 16.7613 35.4404 16.7314 35.5788 16.6735C35.7172 16.6157 35.8429 16.531 35.9487 16.4244C36.0545 16.3178 36.1384 16.1913 36.1955 16.0522C36.2526 15.9131 36.2818 15.7641 36.2815 15.6137C36.2811 15.4632 36.2513 15.3143 36.1936 15.1755C36.1359 15.0366 36.0516 14.9105 35.9453 14.8044C35.7325 14.5896 35.4448 14.4663 35.143 14.4604C34.9923 14.4601 34.843 14.4898 34.7038 14.5477C34.5645 14.6057 34.4381 14.6907 34.3318 14.798C34.2256 14.9052 34.1415 15.0326 34.0846 15.1726C34.0277 15.3126 33.999 15.4626 34.0002 15.6138C34.0009 15.9192 34.1207 16.2099 34.3339 16.4278ZM15.0064 36.327H19.1435V38.6315H15.0064C14.2822 38.6249 13.5901 38.3306 13.0819 37.8129C12.5717 37.2933 12.286 36.5931 12.2865 35.8638V31.7134C11.9788 31.703 11.6763 31.6303 11.3974 31.4994C11.1185 31.3686 10.8689 31.1824 10.6637 30.9521C10.4457 30.7305 10.2745 30.4669 10.1606 30.1773C10.0467 29.8877 9.99237 29.5779 10.0009 29.2667V24.2632C10.0077 23.1809 10.4351 22.1467 11.1894 21.3786C11.9414 20.6196 12.9585 20.1862 14.0236 20.1793H18.2292C17.6619 20.857 17.2346 21.6412 16.9721 22.4861H14.0236C13.5597 22.4994 13.1183 22.6897 12.7894 23.0181C12.4662 23.3514 12.2858 23.7982 12.2865 24.2632V29.3813H14.5722V35.8615C14.5669 35.924 14.5743 35.9869 14.5939 36.0464C14.6136 36.1059 14.645 36.1608 14.6864 36.2077C14.7783 36.279 14.8904 36.3191 15.0064 36.3224V36.327ZM31.6917 21.3808C31.3177 21.002 30.8728 20.701 30.3825 20.4952C29.8921 20.2894 29.3661 20.1828 28.8346 20.1816H23.1662C22.1007 20.1901 21.0818 20.6213 20.332 21.3808C19.5777 22.149 19.1503 23.1832 19.1435 24.2655V31.5528C19.1402 32.1786 19.3777 32.7814 19.8063 33.2359C20.0118 33.4659 20.2614 33.6519 20.5403 33.7827C20.8191 33.9136 21.1215 33.9865 21.4291 33.9972V39.324C21.427 39.6876 21.4966 40.048 21.6339 40.3845C21.7712 40.721 21.9735 41.0269 22.2291 41.2846C22.6405 41.6698 23.1594 41.9197 23.7148 42H28.2861C28.929 41.9153 29.518 41.5952 29.9399 41.1013C30.3618 40.6073 30.5868 39.9743 30.5717 39.324V33.9949C30.8795 33.9846 31.1819 33.9118 31.4608 33.781C31.7398 33.6501 31.9894 33.464 32.1946 33.2337C32.4124 33.0124 32.5834 32.7493 32.6974 32.46C32.8113 32.1708 32.8657 31.8614 32.8574 31.5505V24.2632C32.859 23.1859 32.4406 22.1529 31.6917 21.3808ZM30.5717 31.6652H28.2861V39.324C28.2839 39.4449 28.2347 39.5601 28.1489 39.645C28.1099 39.6914 28.0607 39.7279 28.0052 39.7518C27.9496 39.7757 27.8893 39.7862 27.829 39.7826H24.1491C24.0296 39.777 23.9165 39.7269 23.832 39.6421C23.7474 39.5573 23.6975 39.4438 23.6919 39.324V31.6652H21.4291V24.2632C21.4291 23.7977 21.6097 23.3506 21.932 23.0181C22.2609 22.6897 22.7023 22.4994 23.1662 22.4861H28.8346C29.1809 22.4922 29.5178 22.5996 29.8041 22.7952C30.0903 22.9907 30.3134 23.2658 30.446 23.5868C30.533 23.8014 30.5758 24.0315 30.5717 24.2632V31.6652ZM36.9944 38.6292H32.8574V36.3247H36.9716C37.0876 36.3214 37.1997 36.2813 37.2916 36.21C37.3376 36.1649 37.3736 36.1105 37.3972 36.0505C37.4209 35.9904 37.4316 35.926 37.4287 35.8615V29.3813H39.7143V24.2632C39.7151 23.7982 39.5346 23.3514 39.2115 23.0181C38.8825 22.6897 38.4411 22.4994 37.9773 22.4861H35.0288C34.7664 21.6411 34.339 20.857 33.7717 20.1793H37.9773C39.0425 20.1891 40.061 20.62 40.8115 21.3786C41.5657 22.1467 41.9931 23.1809 42 24.2632V29.2667C42 29.8927 41.7646 30.4934 41.3394 30.9475C40.9143 31.4038 40.3338 31.6767 39.7143 31.7111V35.8615C39.7143 36.593 39.4286 37.2924 38.9189 37.8106C38.4107 38.3283 37.7186 38.6226 36.9944 38.6292ZM16.8578 12.1536C16.1777 12.1528 15.5128 12.3558 14.9484 12.7366C14.384 13.1173 13.9458 13.6585 13.6899 14.2907C13.4317 14.9227 13.3647 15.617 13.4972 16.287C13.6297 16.957 13.9559 17.573 14.435 18.0582C14.914 18.5429 15.5262 18.8733 16.1932 19.0072C16.8603 19.1412 17.5521 19.0726 18.1801 18.8103C18.8081 18.5479 19.344 18.1037 19.7191 17.5343C20.0943 16.9649 20.2917 16.2963 20.2863 15.6138C20.2863 14.6966 19.9252 13.8161 19.2806 13.1671C18.9632 12.8464 18.5858 12.5918 18.17 12.4178C17.7542 12.2439 17.3083 12.1541 16.8578 12.1536ZM16.8578 16.7672C16.7071 16.7675 16.5578 16.7379 16.4185 16.6799C16.2793 16.622 16.1529 16.5369 16.0466 16.4297C15.9403 16.3224 15.8563 16.1951 15.7994 16.055C15.7425 15.915 15.7138 15.765 15.715 15.6138C15.7156 15.3093 15.836 15.0173 16.05 14.8013C16.264 14.5853 16.5543 14.4628 16.8578 14.4604C17.1604 14.4658 17.4491 14.5892 17.6624 14.8046C17.8758 15.0199 17.9971 15.3102 18.0006 15.6138C18.0001 15.9183 17.8797 16.2103 17.6657 16.4263C17.4517 16.6423 17.1614 16.7648 16.8578 16.7672Z" fill="#6E1A83"/>
</svg>
