<svg width="620" height="368" viewBox="0 0 620 368" fill="none" xmlns="http://www.w3.org/2000/svg">
<g clip-path="url(#clip0_365_1864)">
<path d="M78 90C78 81.1634 85.1634 74 94 74H154C162.837 74 170 81.1634 170 90V329H78V90Z" fill="url(#paint0_linear_365_1864)"/>
<path d="M265 135C265 126.163 272.163 119 281 119H341C349.837 119 357 126.163 357 135V329H265V135Z" fill="url(#paint1_linear_365_1864)"/>
<path d="M452 55C452 46.1635 459.163 39 468 39H528C536.837 39 544 46.1634 544 55V329H452V55Z" fill="url(#paint2_linear_365_1864)"/>
<path d="M2 329H620" stroke="#45539E" stroke-width="4" stroke-linecap="round"/>
<path d="M75.18 363.16C74.1133 363.16 73.0933 363 72.12 362.68C71.1467 362.347 70.38 361.92 69.82 361.4L70.56 359.84C71.0933 360.307 71.7733 360.693 72.6 361C73.4267 361.307 74.2867 361.46 75.18 361.46C75.9933 361.46 76.6533 361.367 77.16 361.18C77.6667 360.993 78.04 360.74 78.28 360.42C78.52 360.087 78.64 359.713 78.64 359.3C78.64 358.82 78.48 358.433 78.16 358.14C77.8533 357.847 77.4467 357.613 76.94 357.44C76.4467 357.253 75.9 357.093 75.3 356.96C74.7 356.827 74.0933 356.673 73.48 356.5C72.88 356.313 72.3267 356.08 71.82 355.8C71.3267 355.52 70.9267 355.147 70.62 354.68C70.3133 354.2 70.16 353.587 70.16 352.84C70.16 352.12 70.3467 351.46 70.72 350.86C71.1067 350.247 71.6933 349.76 72.48 349.4C73.28 349.027 74.2933 348.84 75.52 348.84C76.3333 348.84 77.14 348.947 77.94 349.16C78.74 349.373 79.4333 349.68 80.02 350.08L79.36 351.68C78.76 351.28 78.1267 350.993 77.46 350.82C76.7933 350.633 76.1467 350.54 75.52 350.54C74.7333 350.54 74.0867 350.64 73.58 350.84C73.0733 351.04 72.7 351.307 72.46 351.64C72.2333 351.973 72.12 352.347 72.12 352.76C72.12 353.253 72.2733 353.647 72.58 353.94C72.9 354.233 73.3067 354.467 73.8 354.64C74.3067 354.813 74.86 354.973 75.46 355.12C76.06 355.253 76.66 355.407 77.26 355.58C77.8733 355.753 78.4267 355.98 78.92 356.26C79.4267 356.54 79.8333 356.913 80.14 357.38C80.4467 357.847 80.6 358.447 80.6 359.18C80.6 359.887 80.4067 360.547 80.02 361.16C79.6333 361.76 79.0333 362.247 78.22 362.62C77.42 362.98 76.4067 363.16 75.18 363.16ZM87.9619 363.12C86.8285 363.12 85.8285 362.887 84.9619 362.42C84.1085 361.953 83.4419 361.313 82.9619 360.5C82.4952 359.687 82.2619 358.753 82.2619 357.7C82.2619 356.647 82.4885 355.713 82.9419 354.9C83.4085 354.087 84.0419 353.453 84.8419 353C85.6552 352.533 86.5685 352.3 87.5819 352.3C88.6085 352.3 89.5152 352.527 90.3019 352.98C91.0885 353.433 91.7019 354.073 92.1419 354.9C92.5952 355.713 92.8219 356.667 92.8219 357.76C92.8219 357.84 92.8152 357.933 92.8019 358.04C92.8019 358.147 92.7952 358.247 92.7819 358.34H83.7619V356.96H91.7819L91.0019 357.44C91.0152 356.76 90.8752 356.153 90.5819 355.62C90.2885 355.087 89.8819 354.673 89.3619 354.38C88.8552 354.073 88.2619 353.92 87.5819 353.92C86.9152 353.92 86.3219 354.073 85.8019 354.38C85.2819 354.673 84.8752 355.093 84.5819 355.64C84.2885 356.173 84.1419 356.787 84.1419 357.48V357.8C84.1419 358.507 84.3019 359.14 84.6219 359.7C84.9552 360.247 85.4152 360.673 86.0019 360.98C86.5885 361.287 87.2619 361.44 88.0219 361.44C88.6485 361.44 89.2152 361.333 89.7219 361.12C90.2419 360.907 90.6952 360.587 91.0819 360.16L92.1419 361.4C91.6619 361.96 91.0619 362.387 90.3419 362.68C89.6352 362.973 88.8419 363.12 87.9619 363.12ZM108.748 352.3C109.601 352.3 110.355 352.467 111.008 352.8C111.661 353.133 112.168 353.64 112.528 354.32C112.901 355 113.088 355.86 113.088 356.9V363H111.168V357.12C111.168 356.093 110.928 355.32 110.448 354.8C109.968 354.28 109.295 354.02 108.428 354.02C107.788 354.02 107.228 354.153 106.748 354.42C106.268 354.687 105.895 355.08 105.628 355.6C105.375 356.12 105.248 356.767 105.248 357.54V363H103.328V357.12C103.328 356.093 103.088 355.32 102.608 354.8C102.141 354.28 101.468 354.02 100.588 354.02C99.9613 354.02 99.408 354.153 98.928 354.42C98.448 354.687 98.0746 355.08 97.808 355.6C97.5413 356.12 97.408 356.767 97.408 357.54V363H95.488V352.4H97.328V355.22L97.028 354.5C97.3613 353.807 97.8746 353.267 98.568 352.88C99.2613 352.493 100.068 352.3 100.988 352.3C102.001 352.3 102.875 352.553 103.608 353.06C104.341 353.553 104.821 354.307 105.048 355.32L104.268 355C104.588 354.187 105.148 353.533 105.948 353.04C106.748 352.547 107.681 352.3 108.748 352.3ZM121.341 363.12C120.207 363.12 119.207 362.887 118.341 362.42C117.487 361.953 116.821 361.313 116.341 360.5C115.874 359.687 115.641 358.753 115.641 357.7C115.641 356.647 115.867 355.713 116.321 354.9C116.787 354.087 117.421 353.453 118.221 353C119.034 352.533 119.947 352.3 120.961 352.3C121.987 352.3 122.894 352.527 123.681 352.98C124.467 353.433 125.081 354.073 125.521 354.9C125.974 355.713 126.201 356.667 126.201 357.76C126.201 357.84 126.194 357.933 126.181 358.04C126.181 358.147 126.174 358.247 126.161 358.34H117.141V356.96H125.161L124.381 357.44C124.394 356.76 124.254 356.153 123.961 355.62C123.667 355.087 123.261 354.673 122.741 354.38C122.234 354.073 121.641 353.92 120.961 353.92C120.294 353.92 119.701 354.073 119.181 354.38C118.661 354.673 118.254 355.093 117.961 355.64C117.667 356.173 117.521 356.787 117.521 357.48V357.8C117.521 358.507 117.681 359.14 118.001 359.7C118.334 360.247 118.794 360.673 119.381 360.98C119.967 361.287 120.641 361.44 121.401 361.44C122.027 361.44 122.594 361.333 123.101 361.12C123.621 360.907 124.074 360.587 124.461 360.16L125.521 361.4C125.041 361.96 124.441 362.387 123.721 362.68C123.014 362.973 122.221 363.12 121.341 363.12ZM131.907 363.12C131.027 363.12 130.187 363 129.387 362.76C128.6 362.52 127.98 362.227 127.527 361.88L128.327 360.36C128.78 360.667 129.34 360.927 130.007 361.14C130.674 361.353 131.354 361.46 132.047 361.46C132.94 361.46 133.58 361.333 133.967 361.08C134.367 360.827 134.567 360.473 134.567 360.02C134.567 359.687 134.447 359.427 134.207 359.24C133.967 359.053 133.647 358.913 133.247 358.82C132.86 358.727 132.427 358.647 131.947 358.58C131.467 358.5 130.987 358.407 130.507 358.3C130.027 358.18 129.587 358.02 129.187 357.82C128.787 357.607 128.467 357.32 128.227 356.96C127.987 356.587 127.867 356.093 127.867 355.48C127.867 354.84 128.047 354.28 128.407 353.8C128.767 353.32 129.274 352.953 129.927 352.7C130.594 352.433 131.38 352.3 132.287 352.3C132.98 352.3 133.68 352.387 134.387 352.56C135.107 352.72 135.694 352.953 136.147 353.26L135.327 354.78C134.847 354.46 134.347 354.24 133.827 354.12C133.307 354 132.787 353.94 132.267 353.94C131.427 353.94 130.8 354.08 130.387 354.36C129.974 354.627 129.767 354.973 129.767 355.4C129.767 355.76 129.887 356.04 130.127 356.24C130.38 356.427 130.7 356.573 131.087 356.68C131.487 356.787 131.927 356.88 132.407 356.96C132.887 357.027 133.367 357.12 133.847 357.24C134.327 357.347 134.76 357.5 135.147 357.7C135.547 357.9 135.867 358.18 136.107 358.54C136.36 358.9 136.487 359.38 136.487 359.98C136.487 360.62 136.3 361.173 135.927 361.64C135.554 362.107 135.027 362.473 134.347 362.74C133.667 362.993 132.854 363.12 131.907 363.12ZM142.526 363.12C141.46 363.12 140.633 362.833 140.046 362.26C139.46 361.687 139.166 360.867 139.166 359.8V350.08H141.086V359.72C141.086 360.293 141.226 360.733 141.506 361.04C141.8 361.347 142.213 361.5 142.746 361.5C143.346 361.5 143.846 361.333 144.246 361L144.846 362.38C144.553 362.633 144.2 362.82 143.786 362.94C143.386 363.06 142.966 363.12 142.526 363.12ZM137.366 353.98V352.4H144.126V353.98H137.366ZM151.536 363.12C150.403 363.12 149.403 362.887 148.536 362.42C147.683 361.953 147.016 361.313 146.536 360.5C146.069 359.687 145.836 358.753 145.836 357.7C145.836 356.647 146.063 355.713 146.516 354.9C146.983 354.087 147.616 353.453 148.416 353C149.229 352.533 150.143 352.3 151.156 352.3C152.183 352.3 153.089 352.527 153.876 352.98C154.663 353.433 155.276 354.073 155.716 354.9C156.169 355.713 156.396 356.667 156.396 357.76C156.396 357.84 156.389 357.933 156.376 358.04C156.376 358.147 156.369 358.247 156.356 358.34H147.336V356.96H155.356L154.576 357.44C154.589 356.76 154.449 356.153 154.156 355.62C153.863 355.087 153.456 354.673 152.936 354.38C152.429 354.073 151.836 353.92 151.156 353.92C150.489 353.92 149.896 354.073 149.376 354.38C148.856 354.673 148.449 355.093 148.156 355.64C147.863 356.173 147.716 356.787 147.716 357.48V357.8C147.716 358.507 147.876 359.14 148.196 359.7C148.529 360.247 148.989 360.673 149.576 360.98C150.163 361.287 150.836 361.44 151.596 361.44C152.223 361.44 152.789 361.333 153.296 361.12C153.816 360.907 154.269 360.587 154.656 360.16L155.716 361.4C155.236 361.96 154.636 362.387 153.916 362.68C153.209 362.973 152.416 363.12 151.536 363.12ZM159.062 363V352.4H160.902V355.28L160.722 354.56C161.016 353.827 161.509 353.267 162.202 352.88C162.896 352.493 163.749 352.3 164.762 352.3V354.16C164.682 354.147 164.602 354.14 164.522 354.14C164.456 354.14 164.389 354.14 164.322 354.14C163.296 354.14 162.482 354.447 161.882 355.06C161.282 355.673 160.982 356.56 160.982 357.72V363H159.062ZM174.136 363V349.8L174.996 350.74H170.976V349H176.116V363H174.136Z" fill="#20274A"/>
<path d="M262.18 363.16C261.113 363.16 260.093 363 259.12 362.68C258.147 362.347 257.38 361.92 256.82 361.4L257.56 359.84C258.093 360.307 258.773 360.693 259.6 361C260.427 361.307 261.287 361.46 262.18 361.46C262.993 361.46 263.653 361.367 264.16 361.18C264.667 360.993 265.04 360.74 265.28 360.42C265.52 360.087 265.64 359.713 265.64 359.3C265.64 358.82 265.48 358.433 265.16 358.14C264.853 357.847 264.447 357.613 263.94 357.44C263.447 357.253 262.9 357.093 262.3 356.96C261.7 356.827 261.093 356.673 260.48 356.5C259.88 356.313 259.327 356.08 258.82 355.8C258.327 355.52 257.927 355.147 257.62 354.68C257.313 354.2 257.16 353.587 257.16 352.84C257.16 352.12 257.347 351.46 257.72 350.86C258.107 350.247 258.693 349.76 259.48 349.4C260.28 349.027 261.293 348.84 262.52 348.84C263.333 348.84 264.14 348.947 264.94 349.16C265.74 349.373 266.433 349.68 267.02 350.08L266.36 351.68C265.76 351.28 265.127 350.993 264.46 350.82C263.793 350.633 263.147 350.54 262.52 350.54C261.733 350.54 261.087 350.64 260.58 350.84C260.073 351.04 259.7 351.307 259.46 351.64C259.233 351.973 259.12 352.347 259.12 352.76C259.12 353.253 259.273 353.647 259.58 353.94C259.9 354.233 260.307 354.467 260.8 354.64C261.307 354.813 261.86 354.973 262.46 355.12C263.06 355.253 263.66 355.407 264.26 355.58C264.873 355.753 265.427 355.98 265.92 356.26C266.427 356.54 266.833 356.913 267.14 357.38C267.447 357.847 267.6 358.447 267.6 359.18C267.6 359.887 267.407 360.547 267.02 361.16C266.633 361.76 266.033 362.247 265.22 362.62C264.42 362.98 263.407 363.16 262.18 363.16ZM274.962 363.12C273.829 363.12 272.829 362.887 271.962 362.42C271.109 361.953 270.442 361.313 269.962 360.5C269.495 359.687 269.262 358.753 269.262 357.7C269.262 356.647 269.489 355.713 269.942 354.9C270.409 354.087 271.042 353.453 271.842 353C272.655 352.533 273.569 352.3 274.582 352.3C275.609 352.3 276.515 352.527 277.302 352.98C278.089 353.433 278.702 354.073 279.142 354.9C279.595 355.713 279.822 356.667 279.822 357.76C279.822 357.84 279.815 357.933 279.802 358.04C279.802 358.147 279.795 358.247 279.782 358.34H270.762V356.96H278.782L278.002 357.44C278.015 356.76 277.875 356.153 277.582 355.62C277.289 355.087 276.882 354.673 276.362 354.38C275.855 354.073 275.262 353.92 274.582 353.92C273.915 353.92 273.322 354.073 272.802 354.38C272.282 354.673 271.875 355.093 271.582 355.64C271.289 356.173 271.142 356.787 271.142 357.48V357.8C271.142 358.507 271.302 359.14 271.622 359.7C271.955 360.247 272.415 360.673 273.002 360.98C273.589 361.287 274.262 361.44 275.022 361.44C275.649 361.44 276.215 361.333 276.722 361.12C277.242 360.907 277.695 360.587 278.082 360.16L279.142 361.4C278.662 361.96 278.062 362.387 277.342 362.68C276.635 362.973 275.842 363.12 274.962 363.12ZM295.748 352.3C296.601 352.3 297.355 352.467 298.008 352.8C298.661 353.133 299.168 353.64 299.528 354.32C299.901 355 300.088 355.86 300.088 356.9V363H298.168V357.12C298.168 356.093 297.928 355.32 297.448 354.8C296.968 354.28 296.295 354.02 295.428 354.02C294.788 354.02 294.228 354.153 293.748 354.42C293.268 354.687 292.895 355.08 292.628 355.6C292.375 356.12 292.248 356.767 292.248 357.54V363H290.328V357.12C290.328 356.093 290.088 355.32 289.608 354.8C289.141 354.28 288.468 354.02 287.588 354.02C286.961 354.02 286.408 354.153 285.928 354.42C285.448 354.687 285.075 355.08 284.808 355.6C284.541 356.12 284.408 356.767 284.408 357.54V363H282.488V352.4H284.328V355.22L284.028 354.5C284.361 353.807 284.875 353.267 285.568 352.88C286.261 352.493 287.068 352.3 287.988 352.3C289.001 352.3 289.875 352.553 290.608 353.06C291.341 353.553 291.821 354.307 292.048 355.32L291.268 355C291.588 354.187 292.148 353.533 292.948 353.04C293.748 352.547 294.681 352.3 295.748 352.3ZM308.341 363.12C307.207 363.12 306.207 362.887 305.341 362.42C304.487 361.953 303.821 361.313 303.341 360.5C302.874 359.687 302.641 358.753 302.641 357.7C302.641 356.647 302.867 355.713 303.321 354.9C303.787 354.087 304.421 353.453 305.221 353C306.034 352.533 306.947 352.3 307.961 352.3C308.987 352.3 309.894 352.527 310.681 352.98C311.467 353.433 312.081 354.073 312.521 354.9C312.974 355.713 313.201 356.667 313.201 357.76C313.201 357.84 313.194 357.933 313.181 358.04C313.181 358.147 313.174 358.247 313.161 358.34H304.141V356.96H312.161L311.381 357.44C311.394 356.76 311.254 356.153 310.961 355.62C310.667 355.087 310.261 354.673 309.741 354.38C309.234 354.073 308.641 353.92 307.961 353.92C307.294 353.92 306.701 354.073 306.181 354.38C305.661 354.673 305.254 355.093 304.961 355.64C304.667 356.173 304.521 356.787 304.521 357.48V357.8C304.521 358.507 304.681 359.14 305.001 359.7C305.334 360.247 305.794 360.673 306.381 360.98C306.967 361.287 307.641 361.44 308.401 361.44C309.027 361.44 309.594 361.333 310.101 361.12C310.621 360.907 311.074 360.587 311.461 360.16L312.521 361.4C312.041 361.96 311.441 362.387 310.721 362.68C310.014 362.973 309.221 363.12 308.341 363.12ZM318.907 363.12C318.027 363.12 317.187 363 316.387 362.76C315.6 362.52 314.98 362.227 314.527 361.88L315.327 360.36C315.78 360.667 316.34 360.927 317.007 361.14C317.674 361.353 318.354 361.46 319.047 361.46C319.94 361.46 320.58 361.333 320.967 361.08C321.367 360.827 321.567 360.473 321.567 360.02C321.567 359.687 321.447 359.427 321.207 359.24C320.967 359.053 320.647 358.913 320.247 358.82C319.86 358.727 319.427 358.647 318.947 358.58C318.467 358.5 317.987 358.407 317.507 358.3C317.027 358.18 316.587 358.02 316.187 357.82C315.787 357.607 315.467 357.32 315.227 356.96C314.987 356.587 314.867 356.093 314.867 355.48C314.867 354.84 315.047 354.28 315.407 353.8C315.767 353.32 316.274 352.953 316.927 352.7C317.594 352.433 318.38 352.3 319.287 352.3C319.98 352.3 320.68 352.387 321.387 352.56C322.107 352.72 322.694 352.953 323.147 353.26L322.327 354.78C321.847 354.46 321.347 354.24 320.827 354.12C320.307 354 319.787 353.94 319.267 353.94C318.427 353.94 317.8 354.08 317.387 354.36C316.974 354.627 316.767 354.973 316.767 355.4C316.767 355.76 316.887 356.04 317.127 356.24C317.38 356.427 317.7 356.573 318.087 356.68C318.487 356.787 318.927 356.88 319.407 356.96C319.887 357.027 320.367 357.12 320.847 357.24C321.327 357.347 321.76 357.5 322.147 357.7C322.547 357.9 322.867 358.18 323.107 358.54C323.36 358.9 323.487 359.38 323.487 359.98C323.487 360.62 323.3 361.173 322.927 361.64C322.554 362.107 322.027 362.473 321.347 362.74C320.667 362.993 319.854 363.12 318.907 363.12ZM329.526 363.12C328.46 363.12 327.633 362.833 327.046 362.26C326.46 361.687 326.166 360.867 326.166 359.8V350.08H328.086V359.72C328.086 360.293 328.226 360.733 328.506 361.04C328.8 361.347 329.213 361.5 329.746 361.5C330.346 361.5 330.846 361.333 331.246 361L331.846 362.38C331.553 362.633 331.2 362.82 330.786 362.94C330.386 363.06 329.966 363.12 329.526 363.12ZM324.366 353.98V352.4H331.126V353.98H324.366ZM338.536 363.12C337.403 363.12 336.403 362.887 335.536 362.42C334.683 361.953 334.016 361.313 333.536 360.5C333.069 359.687 332.836 358.753 332.836 357.7C332.836 356.647 333.063 355.713 333.516 354.9C333.983 354.087 334.616 353.453 335.416 353C336.229 352.533 337.143 352.3 338.156 352.3C339.183 352.3 340.089 352.527 340.876 352.98C341.663 353.433 342.276 354.073 342.716 354.9C343.169 355.713 343.396 356.667 343.396 357.76C343.396 357.84 343.389 357.933 343.376 358.04C343.376 358.147 343.369 358.247 343.356 358.34H334.336V356.96H342.356L341.576 357.44C341.589 356.76 341.449 356.153 341.156 355.62C340.863 355.087 340.456 354.673 339.936 354.38C339.429 354.073 338.836 353.92 338.156 353.92C337.489 353.92 336.896 354.073 336.376 354.38C335.856 354.673 335.449 355.093 335.156 355.64C334.863 356.173 334.716 356.787 334.716 357.48V357.8C334.716 358.507 334.876 359.14 335.196 359.7C335.529 360.247 335.989 360.673 336.576 360.98C337.163 361.287 337.836 361.44 338.596 361.44C339.223 361.44 339.789 361.333 340.296 361.12C340.816 360.907 341.269 360.587 341.656 360.16L342.716 361.4C342.236 361.96 341.636 362.387 340.916 362.68C340.209 362.973 339.416 363.12 338.536 363.12ZM346.062 363V352.4H347.902V355.28L347.722 354.56C348.016 353.827 348.509 353.267 349.202 352.88C349.896 352.493 350.749 352.3 351.762 352.3V354.16C351.682 354.147 351.602 354.14 351.522 354.14C351.456 354.14 351.389 354.14 351.322 354.14C350.296 354.14 349.482 354.447 348.882 355.06C348.282 355.673 347.982 356.56 347.982 357.72V363H346.062ZM358.556 363V361.64L364.256 356.14C364.763 355.66 365.136 355.24 365.376 354.88C365.63 354.507 365.796 354.167 365.876 353.86C365.97 353.54 366.016 353.233 366.016 352.94C366.016 352.22 365.763 351.653 365.256 351.24C364.75 350.827 364.01 350.62 363.036 350.62C362.29 350.62 361.616 350.747 361.016 351C360.416 351.24 359.896 351.62 359.456 352.14L358.096 350.96C358.63 350.28 359.343 349.76 360.236 349.4C361.143 349.027 362.136 348.84 363.216 348.84C364.19 348.84 365.036 349 365.756 349.32C366.476 349.627 367.03 350.073 367.416 350.66C367.816 351.247 368.016 351.94 368.016 352.74C368.016 353.193 367.956 353.64 367.836 354.08C367.716 354.52 367.49 354.987 367.156 355.48C366.823 355.973 366.343 356.527 365.716 357.14L360.636 362.04L360.156 361.26H368.616V363H358.556Z" fill="#20274A"/>
<path d="M449.18 363.16C448.113 363.16 447.093 363 446.12 362.68C445.147 362.347 444.38 361.92 443.82 361.4L444.56 359.84C445.093 360.307 445.773 360.693 446.6 361C447.427 361.307 448.287 361.46 449.18 361.46C449.993 361.46 450.653 361.367 451.16 361.18C451.667 360.993 452.04 360.74 452.28 360.42C452.52 360.087 452.64 359.713 452.64 359.3C452.64 358.82 452.48 358.433 452.16 358.14C451.853 357.847 451.447 357.613 450.94 357.44C450.447 357.253 449.9 357.093 449.3 356.96C448.7 356.827 448.093 356.673 447.48 356.5C446.88 356.313 446.327 356.08 445.82 355.8C445.327 355.52 444.927 355.147 444.62 354.68C444.313 354.2 444.16 353.587 444.16 352.84C444.16 352.12 444.347 351.46 444.72 350.86C445.107 350.247 445.693 349.76 446.48 349.4C447.28 349.027 448.293 348.84 449.52 348.84C450.333 348.84 451.14 348.947 451.94 349.16C452.74 349.373 453.433 349.68 454.02 350.08L453.36 351.68C452.76 351.28 452.127 350.993 451.46 350.82C450.793 350.633 450.147 350.54 449.52 350.54C448.733 350.54 448.087 350.64 447.58 350.84C447.073 351.04 446.7 351.307 446.46 351.64C446.233 351.973 446.12 352.347 446.12 352.76C446.12 353.253 446.273 353.647 446.58 353.94C446.9 354.233 447.307 354.467 447.8 354.64C448.307 354.813 448.86 354.973 449.46 355.12C450.06 355.253 450.66 355.407 451.26 355.58C451.873 355.753 452.427 355.98 452.92 356.26C453.427 356.54 453.833 356.913 454.14 357.38C454.447 357.847 454.6 358.447 454.6 359.18C454.6 359.887 454.407 360.547 454.02 361.16C453.633 361.76 453.033 362.247 452.22 362.62C451.42 362.98 450.407 363.16 449.18 363.16ZM461.962 363.12C460.829 363.12 459.829 362.887 458.962 362.42C458.109 361.953 457.442 361.313 456.962 360.5C456.495 359.687 456.262 358.753 456.262 357.7C456.262 356.647 456.489 355.713 456.942 354.9C457.409 354.087 458.042 353.453 458.842 353C459.655 352.533 460.569 352.3 461.582 352.3C462.609 352.3 463.515 352.527 464.302 352.98C465.089 353.433 465.702 354.073 466.142 354.9C466.595 355.713 466.822 356.667 466.822 357.76C466.822 357.84 466.815 357.933 466.802 358.04C466.802 358.147 466.795 358.247 466.782 358.34H457.762V356.96H465.782L465.002 357.44C465.015 356.76 464.875 356.153 464.582 355.62C464.289 355.087 463.882 354.673 463.362 354.38C462.855 354.073 462.262 353.92 461.582 353.92C460.915 353.92 460.322 354.073 459.802 354.38C459.282 354.673 458.875 355.093 458.582 355.64C458.289 356.173 458.142 356.787 458.142 357.48V357.8C458.142 358.507 458.302 359.14 458.622 359.7C458.955 360.247 459.415 360.673 460.002 360.98C460.589 361.287 461.262 361.44 462.022 361.44C462.649 361.44 463.215 361.333 463.722 361.12C464.242 360.907 464.695 360.587 465.082 360.16L466.142 361.4C465.662 361.96 465.062 362.387 464.342 362.68C463.635 362.973 462.842 363.12 461.962 363.12ZM482.748 352.3C483.601 352.3 484.355 352.467 485.008 352.8C485.661 353.133 486.168 353.64 486.528 354.32C486.901 355 487.088 355.86 487.088 356.9V363H485.168V357.12C485.168 356.093 484.928 355.32 484.448 354.8C483.968 354.28 483.295 354.02 482.428 354.02C481.788 354.02 481.228 354.153 480.748 354.42C480.268 354.687 479.895 355.08 479.628 355.6C479.375 356.12 479.248 356.767 479.248 357.54V363H477.328V357.12C477.328 356.093 477.088 355.32 476.608 354.8C476.141 354.28 475.468 354.02 474.588 354.02C473.961 354.02 473.408 354.153 472.928 354.42C472.448 354.687 472.075 355.08 471.808 355.6C471.541 356.12 471.408 356.767 471.408 357.54V363H469.488V352.4H471.328V355.22L471.028 354.5C471.361 353.807 471.875 353.267 472.568 352.88C473.261 352.493 474.068 352.3 474.988 352.3C476.001 352.3 476.875 352.553 477.608 353.06C478.341 353.553 478.821 354.307 479.048 355.32L478.268 355C478.588 354.187 479.148 353.533 479.948 353.04C480.748 352.547 481.681 352.3 482.748 352.3ZM495.341 363.12C494.207 363.12 493.207 362.887 492.341 362.42C491.487 361.953 490.821 361.313 490.341 360.5C489.874 359.687 489.641 358.753 489.641 357.7C489.641 356.647 489.867 355.713 490.321 354.9C490.787 354.087 491.421 353.453 492.221 353C493.034 352.533 493.947 352.3 494.961 352.3C495.987 352.3 496.894 352.527 497.681 352.98C498.467 353.433 499.081 354.073 499.521 354.9C499.974 355.713 500.201 356.667 500.201 357.76C500.201 357.84 500.194 357.933 500.181 358.04C500.181 358.147 500.174 358.247 500.161 358.34H491.141V356.96H499.161L498.381 357.44C498.394 356.76 498.254 356.153 497.961 355.62C497.667 355.087 497.261 354.673 496.741 354.38C496.234 354.073 495.641 353.92 494.961 353.92C494.294 353.92 493.701 354.073 493.181 354.38C492.661 354.673 492.254 355.093 491.961 355.64C491.667 356.173 491.521 356.787 491.521 357.48V357.8C491.521 358.507 491.681 359.14 492.001 359.7C492.334 360.247 492.794 360.673 493.381 360.98C493.967 361.287 494.641 361.44 495.401 361.44C496.027 361.44 496.594 361.333 497.101 361.12C497.621 360.907 498.074 360.587 498.461 360.16L499.521 361.4C499.041 361.96 498.441 362.387 497.721 362.68C497.014 362.973 496.221 363.12 495.341 363.12ZM505.907 363.12C505.027 363.12 504.187 363 503.387 362.76C502.6 362.52 501.98 362.227 501.527 361.88L502.327 360.36C502.78 360.667 503.34 360.927 504.007 361.14C504.674 361.353 505.354 361.46 506.047 361.46C506.94 361.46 507.58 361.333 507.967 361.08C508.367 360.827 508.567 360.473 508.567 360.02C508.567 359.687 508.447 359.427 508.207 359.24C507.967 359.053 507.647 358.913 507.247 358.82C506.86 358.727 506.427 358.647 505.947 358.58C505.467 358.5 504.987 358.407 504.507 358.3C504.027 358.18 503.587 358.02 503.187 357.82C502.787 357.607 502.467 357.32 502.227 356.96C501.987 356.587 501.867 356.093 501.867 355.48C501.867 354.84 502.047 354.28 502.407 353.8C502.767 353.32 503.274 352.953 503.927 352.7C504.594 352.433 505.38 352.3 506.287 352.3C506.98 352.3 507.68 352.387 508.387 352.56C509.107 352.72 509.694 352.953 510.147 353.26L509.327 354.78C508.847 354.46 508.347 354.24 507.827 354.12C507.307 354 506.787 353.94 506.267 353.94C505.427 353.94 504.8 354.08 504.387 354.36C503.974 354.627 503.767 354.973 503.767 355.4C503.767 355.76 503.887 356.04 504.127 356.24C504.38 356.427 504.7 356.573 505.087 356.68C505.487 356.787 505.927 356.88 506.407 356.96C506.887 357.027 507.367 357.12 507.847 357.24C508.327 357.347 508.76 357.5 509.147 357.7C509.547 357.9 509.867 358.18 510.107 358.54C510.36 358.9 510.487 359.38 510.487 359.98C510.487 360.62 510.3 361.173 509.927 361.64C509.554 362.107 509.027 362.473 508.347 362.74C507.667 362.993 506.854 363.12 505.907 363.12ZM516.526 363.12C515.46 363.12 514.633 362.833 514.046 362.26C513.46 361.687 513.166 360.867 513.166 359.8V350.08H515.086V359.72C515.086 360.293 515.226 360.733 515.506 361.04C515.8 361.347 516.213 361.5 516.746 361.5C517.346 361.5 517.846 361.333 518.246 361L518.846 362.38C518.553 362.633 518.2 362.82 517.786 362.94C517.386 363.06 516.966 363.12 516.526 363.12ZM511.366 353.98V352.4H518.126V353.98H511.366ZM525.536 363.12C524.403 363.12 523.403 362.887 522.536 362.42C521.683 361.953 521.016 361.313 520.536 360.5C520.069 359.687 519.836 358.753 519.836 357.7C519.836 356.647 520.063 355.713 520.516 354.9C520.983 354.087 521.616 353.453 522.416 353C523.229 352.533 524.143 352.3 525.156 352.3C526.183 352.3 527.089 352.527 527.876 352.98C528.663 353.433 529.276 354.073 529.716 354.9C530.169 355.713 530.396 356.667 530.396 357.76C530.396 357.84 530.389 357.933 530.376 358.04C530.376 358.147 530.369 358.247 530.356 358.34H521.336V356.96H529.356L528.576 357.44C528.589 356.76 528.449 356.153 528.156 355.62C527.863 355.087 527.456 354.673 526.936 354.38C526.429 354.073 525.836 353.92 525.156 353.92C524.489 353.92 523.896 354.073 523.376 354.38C522.856 354.673 522.449 355.093 522.156 355.64C521.863 356.173 521.716 356.787 521.716 357.48V357.8C521.716 358.507 521.876 359.14 522.196 359.7C522.529 360.247 522.989 360.673 523.576 360.98C524.163 361.287 524.836 361.44 525.596 361.44C526.223 361.44 526.789 361.333 527.296 361.12C527.816 360.907 528.269 360.587 528.656 360.16L529.716 361.4C529.236 361.96 528.636 362.387 527.916 362.68C527.209 362.973 526.416 363.12 525.536 363.12ZM533.062 363V352.4H534.902V355.28L534.722 354.56C535.016 353.827 535.509 353.267 536.202 352.88C536.896 352.493 537.749 352.3 538.762 352.3V354.16C538.682 354.147 538.602 354.14 538.522 354.14C538.456 354.14 538.389 354.14 538.322 354.14C537.296 354.14 536.482 354.447 535.882 355.06C535.282 355.673 534.982 356.56 534.982 357.72V363H533.062ZM550.056 363.16C549.07 363.16 548.11 363.007 547.176 362.7C546.256 362.393 545.503 361.98 544.916 361.46L545.836 359.88C546.303 360.32 546.91 360.68 547.656 360.96C548.403 361.24 549.203 361.38 550.056 361.38C551.096 361.38 551.903 361.16 552.476 360.72C553.063 360.267 553.356 359.66 553.356 358.9C553.356 358.167 553.076 357.58 552.516 357.14C551.97 356.687 551.096 356.46 549.896 356.46H548.776V355.06L552.936 349.94L553.216 350.74H545.556V349H554.796V350.36L550.656 355.46L549.616 354.84H550.276C551.97 354.84 553.236 355.22 554.076 355.98C554.93 356.74 555.356 357.707 555.356 358.88C555.356 359.667 555.163 360.387 554.776 361.04C554.39 361.693 553.803 362.213 553.016 362.6C552.243 362.973 551.256 363.16 550.056 363.16Z" fill="#20274A"/>
<path d="M108.32 54.24C107.347 54.24 106.38 54.1133 105.42 53.86C104.46 53.5933 103.647 53.22 102.98 52.74L104.24 50.26C104.773 50.6467 105.393 50.9533 106.1 51.18C106.807 51.4067 107.52 51.52 108.24 51.52C109.053 51.52 109.693 51.36 110.16 51.04C110.627 50.72 110.86 50.28 110.86 49.72C110.86 49.1867 110.653 48.7667 110.24 48.46C109.827 48.1533 109.16 48 108.24 48H106.76V45.86L110.66 41.44L111.02 42.6H103.68V40H113.48V42.1L109.6 46.52L107.96 45.58H108.9C110.62 45.58 111.92 45.9667 112.8 46.74C113.68 47.5133 114.12 48.5067 114.12 49.72C114.12 50.5067 113.913 51.2467 113.5 51.94C113.087 52.62 112.453 53.1733 111.6 53.6C110.747 54.0267 109.653 54.24 108.32 54.24ZM117.456 54.16C116.923 54.16 116.463 53.98 116.076 53.62C115.703 53.2467 115.516 52.7733 115.516 52.2C115.516 51.6267 115.703 51.1667 116.076 50.82C116.463 50.46 116.923 50.28 117.456 50.28C118.003 50.28 118.463 50.46 118.836 50.82C119.209 51.1667 119.396 51.6267 119.396 52.2C119.396 52.7733 119.209 53.2467 118.836 53.62C118.463 53.98 118.003 54.16 117.456 54.16ZM125.77 39.76C127.064 39.76 128.177 40.0267 129.11 40.56C130.044 41.0933 130.764 41.8733 131.27 42.9C131.777 43.9133 132.03 45.18 132.03 46.7C132.03 48.3133 131.724 49.68 131.11 50.8C130.51 51.92 129.677 52.7733 128.61 53.36C127.544 53.9467 126.304 54.24 124.89 54.24C124.157 54.24 123.45 54.16 122.77 54C122.09 53.84 121.504 53.6 121.01 53.28L122.21 50.9C122.597 51.1667 123.01 51.3533 123.45 51.46C123.89 51.5533 124.35 51.6 124.83 51.6C126.03 51.6 126.984 51.2333 127.69 50.5C128.41 49.7667 128.77 48.68 128.77 47.24C128.77 47 128.764 46.7333 128.75 46.44C128.737 46.1467 128.704 45.8533 128.65 45.56L129.53 46.4C129.304 46.92 128.984 47.36 128.57 47.72C128.157 48.0667 127.677 48.3333 127.13 48.52C126.584 48.6933 125.97 48.78 125.29 48.78C124.397 48.78 123.584 48.6 122.85 48.24C122.13 47.88 121.55 47.3733 121.11 46.72C120.684 46.0667 120.47 45.3 120.47 44.42C120.47 43.46 120.704 42.6333 121.17 41.94C121.65 41.2467 122.29 40.7133 123.09 40.34C123.904 39.9533 124.797 39.76 125.77 39.76ZM125.97 42.18C125.504 42.18 125.097 42.2667 124.75 42.44C124.404 42.6 124.13 42.84 123.93 43.16C123.73 43.4667 123.63 43.8333 123.63 44.26C123.63 44.9 123.844 45.4133 124.27 45.8C124.71 46.1733 125.29 46.36 126.01 46.36C126.477 46.36 126.89 46.2733 127.25 46.1C127.624 45.9133 127.91 45.66 128.11 45.34C128.31 45.02 128.41 44.66 128.41 44.26C128.41 43.86 128.31 43.5067 128.11 43.2C127.924 42.88 127.65 42.6333 127.29 42.46C126.93 42.2733 126.49 42.18 125.97 42.18ZM138.345 54.24C137.371 54.24 136.405 54.1133 135.445 53.86C134.498 53.5933 133.685 53.22 133.005 52.74L134.285 50.26C134.818 50.6467 135.431 50.9533 136.125 51.18C136.831 51.4067 137.545 51.52 138.265 51.52C139.078 51.52 139.718 51.36 140.185 51.04C140.651 50.72 140.885 50.2733 140.885 49.7C140.885 49.34 140.791 49.02 140.605 48.74C140.418 48.46 140.085 48.2467 139.605 48.1C139.138 47.9533 138.478 47.88 137.625 47.88H134.045L134.765 40H143.305V42.6H135.925L137.605 41.12L137.105 46.74L135.425 45.26H138.385C139.771 45.26 140.885 45.4533 141.725 45.84C142.578 46.2133 143.198 46.7267 143.585 47.38C143.971 48.0333 144.165 48.7733 144.165 49.6C144.165 50.4267 143.958 51.1933 143.545 51.9C143.131 52.5933 142.491 53.16 141.625 53.6C140.771 54.0267 139.678 54.24 138.345 54.24Z" fill="#45539E"/>
<path d="M295.32 90.7C297.84 91.1 299.12 92.66 299.12 94.72C299.12 97.08 297.3 99.24 293.32 99.24C291.36 99.24 289.34 98.7 287.98 97.74L289.24 95.26C290.3 96.06 291.78 96.52 293.24 96.52C294.86 96.52 295.86 95.86 295.86 94.72C295.86 93.66 295.08 93 293.24 93H291.76V90.86L294.64 87.6H288.68V85H298.48V87.1L295.32 90.7ZM302.456 99.16C301.376 99.16 300.516 98.34 300.516 97.2C300.516 96.04 301.376 95.28 302.456 95.28C303.536 95.28 304.396 96.04 304.396 97.2C304.396 98.34 303.536 99.16 302.456 99.16ZM315.626 91.64C316.986 92.32 317.766 93.44 317.766 94.94C317.766 97.58 315.406 99.24 311.846 99.24C308.306 99.24 305.966 97.58 305.966 94.94C305.966 93.44 306.746 92.32 308.086 91.64C307.046 91 306.466 90.02 306.466 88.76C306.466 86.3 308.666 84.76 311.846 84.76C315.066 84.76 317.266 86.3 317.266 88.76C317.266 90.02 316.666 91 315.626 91.64ZM311.846 87.14C310.546 87.14 309.686 87.8 309.686 88.9C309.686 89.96 310.526 90.62 311.846 90.62C313.186 90.62 314.046 89.96 314.046 88.9C314.046 87.8 313.166 87.14 311.846 87.14ZM311.846 96.86C313.466 96.86 314.486 96.08 314.486 94.84C314.486 93.6 313.466 92.84 311.846 92.84C310.246 92.84 309.246 93.6 309.246 94.84C309.246 96.08 310.246 96.86 311.846 96.86ZM325.249 99.24C321.809 99.24 319.249 96.62 319.249 92C319.249 87.38 321.809 84.76 325.249 84.76C328.709 84.76 331.249 87.38 331.249 92C331.249 96.62 328.709 99.24 325.249 99.24ZM325.249 96.5C326.869 96.5 327.989 95.18 327.989 92C327.989 88.82 326.869 87.5 325.249 87.5C323.649 87.5 322.529 88.82 322.529 92C322.529 95.18 323.649 96.5 325.249 96.5Z" fill="#45539E"/>
<path d="M487.6 14.42V17.06H485.32V20H482.16V17.06H474.62V14.88L481.22 6H484.62L478.5 14.42H482.26V11.8H485.32V14.42H487.6ZM490.8 20.16C489.72 20.16 488.86 19.34 488.86 18.2C488.86 17.04 489.72 16.28 490.8 16.28C491.88 16.28 492.74 17.04 492.74 18.2C492.74 19.34 491.88 20.16 490.8 20.16ZM499.94 20.24C496.5 20.24 493.94 17.62 493.94 13C493.94 8.38 496.5 5.76 499.94 5.76C503.4 5.76 505.94 8.38 505.94 13C505.94 17.62 503.4 20.24 499.94 20.24ZM499.94 17.5C501.56 17.5 502.68 16.18 502.68 13C502.68 9.82 501.56 8.5 499.94 8.5C498.34 8.5 497.22 9.82 497.22 13C497.22 16.18 498.34 17.5 499.94 17.5ZM513.514 20.24C510.074 20.24 507.514 17.62 507.514 13C507.514 8.38 510.074 5.76 513.514 5.76C516.974 5.76 519.514 8.38 519.514 13C519.514 17.62 516.974 20.24 513.514 20.24ZM513.514 17.5C515.134 17.5 516.254 16.18 516.254 13C516.254 9.82 515.134 8.5 513.514 8.5C511.914 8.5 510.794 9.82 510.794 13C510.794 16.18 511.914 17.5 513.514 17.5Z" fill="#45539E"/>
</g>
<defs>
<linearGradient id="paint0_linear_365_1864" x1="124" y1="74" x2="124" y2="329" gradientUnits="userSpaceOnUse">
<stop stop-color="#5C6ED2"/>
<stop offset="1" stop-color="#45539E"/>
</linearGradient>
<linearGradient id="paint1_linear_365_1864" x1="311" y1="119" x2="311" y2="329" gradientUnits="userSpaceOnUse">
<stop stop-color="#5C6ED2"/>
<stop offset="1" stop-color="#45539E"/>
</linearGradient>
<linearGradient id="paint2_linear_365_1864" x1="498" y1="39" x2="498" y2="329" gradientUnits="userSpaceOnUse">
<stop stop-color="#5C6ED2"/>
<stop offset="1" stop-color="#45539E"/>
</linearGradient>
<clipPath id="clip0_365_1864">
<rect width="620" height="368" fill="white"/>
</clipPath>
</defs>
</svg>
