<svg width="52" height="52" viewBox="0 0 52 52" fill="none" xmlns="http://www.w3.org/2000/svg">
<rect width="52" height="52" rx="12" fill="#EFF1FB"/>
<path d="M29.8858 33.8564L30.1065 38.4614L25.5793 35.2245L21.0268 38.4645L21.2477 33.8564H19.3357L19.0062 40.7333H21.1958L25.5768 37.6154L29.9375 40.7333H32.1273L31.7977 33.8564H29.8858ZM35.0796 19.7904L34.9487 16.8398L32.5309 15.2479L30.9834 12.76L28.1157 12.6249L25.5667 11.2667L23.0178 12.6252L20.1501 12.7603L18.6025 15.2479L16.1848 16.8398L16.0538 19.7904L14.7334 22.4131L16.0538 25.0358L16.1851 27.9863L18.6025 29.5782L20.1498 32.0662L23.0176 32.201L25.5667 33.5595L28.1157 32.201L30.9834 32.0662L32.5307 29.5782L34.9486 27.9865L35.0796 25.036L36.4001 22.4133L35.0796 19.7904ZM33.1911 24.5151L33.0859 26.8799L31.1479 28.1558L29.9079 30.1498L27.6094 30.2579L25.5667 31.3467L23.5238 30.2579L21.2254 30.1498L19.9853 28.1558L18.0476 26.8799L17.9426 24.5151L16.8839 22.4131L17.9424 20.3114L18.0476 17.9463L19.9853 16.6704L21.2254 14.6764L23.5238 14.5684L25.5667 13.4795L27.6097 14.5683L29.9081 14.6764L31.1482 16.6703L33.0859 17.9463L33.1909 20.3111L34.2496 22.4131L33.1911 24.5151Z" fill="#5C6ED2"/>
</svg>
