<svg width="55" height="55" viewBox="0 0 55 55" fill="none" xmlns="http://www.w3.org/2000/svg">
<rect width="55" height="55" rx="27.5" fill="#E7E9F8"/>
<path d="M31.8593 28.1271C33.1123 27.1413 34.027 25.7893 34.4759 24.2594C34.9248 22.7296 34.8858 21.0978 34.3641 19.5911C33.8425 18.0845 32.8642 16.7779 31.5654 15.8531C30.2666 14.9283 28.7118 14.4314 27.1174 14.4314C25.523 14.4314 23.9683 14.9283 22.6695 15.8531C21.3707 16.7779 20.3924 18.0845 19.8708 19.5911C19.3491 21.0978 19.31 22.7296 19.759 24.2594C20.2079 25.7893 21.1225 27.1413 22.3756 28.1271C20.2285 28.9874 18.355 30.4141 16.9549 32.2554C15.5549 34.0966 14.6807 36.2832 14.4257 38.5822C14.4072 38.75 14.422 38.9199 14.4692 39.082C14.5163 39.2441 14.595 39.3954 14.7006 39.5271C14.9139 39.7932 15.2242 39.9636 15.5632 40.0009C15.9022 40.0382 16.2421 39.9393 16.5082 39.726C16.7742 39.5126 16.9446 39.2023 16.9819 38.8634C17.2626 36.3649 18.4539 34.0574 20.3283 32.3817C22.2027 30.7061 24.6288 29.7798 27.143 29.7798C29.6572 29.7798 32.0833 30.7061 33.9577 32.3817C35.8321 34.0574 37.0234 36.3649 37.3041 38.8634C37.3388 39.1774 37.4887 39.4675 37.7247 39.6775C37.9608 39.8876 38.2662 40.0028 38.5822 40.0009H38.7228C39.0578 39.9623 39.3641 39.7929 39.5748 39.5296C39.7854 39.2662 39.8835 38.9303 39.8476 38.595C39.5913 36.2895 38.7124 34.0972 37.3052 32.2532C35.8979 30.4091 34.0154 28.9828 31.8593 28.1271ZM27.1174 27.2197C26.1063 27.2197 25.1178 26.9198 24.2771 26.358C23.4364 25.7963 22.7811 24.9978 22.3941 24.0636C22.0072 23.1294 21.9059 22.1015 22.1032 21.1098C22.3005 20.118 22.7874 19.2071 23.5024 18.4921C24.2174 17.7771 25.1283 17.2902 26.12 17.0929C27.1118 16.8956 28.1397 16.9969 29.0739 17.3838C30.0081 17.7708 30.8066 18.4261 31.3683 19.2668C31.9301 20.1076 32.2299 21.096 32.2299 22.1072C32.2299 23.4631 31.6913 24.7635 30.7325 25.7222C29.7737 26.681 28.4734 27.2197 27.1174 27.2197Z" fill="black"/>
</svg>
