<svg width="52" height="52" viewBox="0 0 52 52" fill="none" xmlns="http://www.w3.org/2000/svg">
<rect width="52" height="52" rx="12" fill="#C479FF"/>
<path fill-rule="evenodd" clip-rule="evenodd" d="M26 13.2C25.138 13.2 24.3114 13.5371 23.7019 14.1373C23.0924 14.7374 22.75 15.5513 22.75 16.4H29.25C29.25 15.5513 28.9076 14.7374 28.2981 14.1373C27.6886 13.5371 26.862 13.2 26 13.2ZM21.7003 11.6C22.8459 10.6048 24.3523 10 26 10C27.6477 10 29.1525 10.6048 30.2997 11.6H35.75C36.612 11.6 37.4386 11.9371 38.0481 12.5373C38.6576 13.1374 39 13.9513 39 14.8V38.8C39 39.6487 38.6576 40.4626 38.0481 41.0627C37.4386 41.6629 36.612 42 35.75 42H16.25C15.388 42 14.5614 41.6629 13.9519 41.0627C13.3424 40.4626 13 39.6487 13 38.8V14.8C13 13.9513 13.3424 13.1374 13.9519 12.5373C14.5614 11.9371 15.388 11.6 16.25 11.6H21.7003ZM19.7048 14.8H16.25V38.8H35.75V14.8H32.2952C32.4285 15.312 32.5 15.848 32.5 16.4V18C32.5 18.4243 32.3288 18.8313 32.024 19.1314C31.7193 19.4314 31.306 19.6 30.875 19.6H21.125C20.694 19.6 20.2807 19.4314 19.976 19.1314C19.6712 18.8313 19.5 18.4243 19.5 18V16.4C19.5 15.848 19.5715 15.312 19.7048 14.8ZM19.5 24.4C19.5 23.9757 19.6712 23.5687 19.976 23.2686C20.2807 22.9686 20.694 22.8 21.125 22.8H30.875C31.306 22.8 31.7193 22.9686 32.024 23.2686C32.3288 23.5687 32.5 23.9757 32.5 24.4C32.5 24.8243 32.3288 25.2313 32.024 25.5314C31.7193 25.8314 31.306 26 30.875 26H21.125C20.694 26 20.2807 25.8314 19.976 25.5314C19.6712 25.2313 19.5 24.8243 19.5 24.4ZM19.5 30.8C19.5 30.3757 19.6712 29.9687 19.976 29.6686C20.2807 29.3686 20.694 29.2 21.125 29.2H26C26.431 29.2 26.8443 29.3686 27.149 29.6686C27.4538 29.9687 27.625 30.3757 27.625 30.8C27.625 31.2243 27.4538 31.6313 27.149 31.9314C26.8443 32.2314 26.431 32.4 26 32.4H21.125C20.694 32.4 20.2807 32.2314 19.976 31.9314C19.6712 31.6313 19.5 31.2243 19.5 30.8Z" fill="#51088B"/>
</svg>
